<mxfile host="app.diagrams.net" modified="2022-01-28T05:53:02.493Z" agent="5.0 (Windows NT 10.0; Win64; x64) AppleWebKit/537.36 (KHTML, like Gecko) Chrome/97.0.4692.99 Safari/537.36" etag="j1-QwpPKZzYfe3Lz2eN2" version="16.4.11" type="github">
  <diagram id="8As7zu5LVlnZ0H2C2J7r" name="Page-1">
    <mxGraphModel dx="1037" dy="861" grid="1" gridSize="10" guides="1" tooltips="1" connect="1" arrows="1" fold="1" page="1" pageScale="1" pageWidth="827" pageHeight="1169" math="0" shadow="0">
      <root>
        <mxCell id="0" />
        <mxCell id="1" parent="0" />
        <mxCell id="Huk9ythuZgXh1tu6I32B-1" value="&lt;span style=&quot;font-size: 24px&quot;&gt;Browser&lt;/span&gt;" style="rounded=1;whiteSpace=wrap;html=1;fillColor=#e1d5e7;strokeColor=#9673a6;" parent="1" vertex="1">
          <mxGeometry x="20" y="160" width="120" height="60" as="geometry" />
        </mxCell>
        <mxCell id="Huk9ythuZgXh1tu6I32B-3" value="" style="endArrow=none;dashed=1;html=1;rounded=0;entryX=0.5;entryY=1;entryDx=0;entryDy=0;" parent="1" target="Huk9ythuZgXh1tu6I32B-1" edge="1">
          <mxGeometry width="50" height="50" relative="1" as="geometry">
            <mxPoint x="80" y="700" as="sourcePoint" />
            <mxPoint x="120" y="250" as="targetPoint" />
          </mxGeometry>
        </mxCell>
        <mxCell id="Huk9ythuZgXh1tu6I32B-4" value="&lt;font style=&quot;font-size: 18px&quot;&gt;Server&lt;/font&gt;" style="rounded=1;whiteSpace=wrap;html=1;fillColor=#d5e8d4;strokeColor=#82b366;" parent="1" vertex="1">
          <mxGeometry x="480" y="160" width="120" height="60" as="geometry" />
        </mxCell>
        <mxCell id="Huk9ythuZgXh1tu6I32B-5" value="" style="endArrow=none;dashed=1;html=1;rounded=0;entryX=0.5;entryY=1;entryDx=0;entryDy=0;" parent="1" edge="1">
          <mxGeometry width="50" height="50" relative="1" as="geometry">
            <mxPoint x="540" y="700" as="sourcePoint" />
            <mxPoint x="539.5" y="220" as="targetPoint" />
          </mxGeometry>
        </mxCell>
        <mxCell id="Huk9ythuZgXh1tu6I32B-6" value="" style="shape=flexArrow;endArrow=classic;html=1;rounded=0;fontSize=18;" parent="1" edge="1">
          <mxGeometry width="50" height="50" relative="1" as="geometry">
            <mxPoint x="80" y="280" as="sourcePoint" />
            <mxPoint x="540" y="280" as="targetPoint" />
          </mxGeometry>
        </mxCell>
        <mxCell id="Huk9ythuZgXh1tu6I32B-8" value="1" style="ellipse;whiteSpace=wrap;html=1;fontSize=18;fontStyle=1" parent="1" vertex="1">
          <mxGeometry x="115" y="230" width="40" height="40" as="geometry" />
        </mxCell>
        <mxCell id="Huk9ythuZgXh1tu6I32B-9" value="&lt;span style=&quot;font-size: 16px&quot;&gt;로그인 데이터(&lt;font color=&quot;#c2c22f&quot;&gt;username, password&lt;/font&gt;)를 보냄&lt;/span&gt;" style="text;html=1;align=center;verticalAlign=middle;resizable=0;points=[];autosize=1;strokeColor=none;fillColor=none;fontSize=18;fontStyle=1" parent="1" vertex="1">
          <mxGeometry x="151" y="240" width="340" height="30" as="geometry" />
        </mxCell>
        <mxCell id="Huk9ythuZgXh1tu6I32B-10" value="" style="curved=1;endArrow=classic;html=1;rounded=0;fontSize=18;" parent="1" edge="1">
          <mxGeometry width="50" height="50" relative="1" as="geometry">
            <mxPoint x="540" y="280" as="sourcePoint" />
            <mxPoint x="540" y="370" as="targetPoint" />
            <Array as="points">
              <mxPoint x="670" y="320" />
            </Array>
          </mxGeometry>
        </mxCell>
        <mxCell id="Huk9ythuZgXh1tu6I32B-11" value="&lt;span style=&quot;font-size: 16px&quot;&gt;데이터베이스에 &lt;font color=&quot;#c2c22f&quot;&gt;세션&lt;/font&gt;을 저장함&lt;/span&gt;" style="text;html=1;align=center;verticalAlign=middle;resizable=0;points=[];autosize=1;strokeColor=none;fillColor=none;fontSize=18;fontStyle=1" parent="1" vertex="1">
          <mxGeometry x="555" y="315" width="230" height="30" as="geometry" />
        </mxCell>
        <mxCell id="Huk9ythuZgXh1tu6I32B-12" value="2" style="ellipse;whiteSpace=wrap;html=1;fontSize=18;fontStyle=1" parent="1" vertex="1">
          <mxGeometry x="515" y="310" width="40" height="40" as="geometry" />
        </mxCell>
        <mxCell id="Huk9ythuZgXh1tu6I32B-13" value="" style="shape=flexArrow;endArrow=classic;html=1;rounded=0;fontSize=18;" parent="1" edge="1">
          <mxGeometry width="50" height="50" relative="1" as="geometry">
            <mxPoint x="540" y="370" as="sourcePoint" />
            <mxPoint x="80" y="370" as="targetPoint" />
          </mxGeometry>
        </mxCell>
        <mxCell id="Huk9ythuZgXh1tu6I32B-14" value="3" style="ellipse;whiteSpace=wrap;html=1;fontSize=18;fontStyle=1" parent="1" vertex="1">
          <mxGeometry x="159" y="376" width="40" height="40" as="geometry" />
        </mxCell>
        <mxCell id="Huk9ythuZgXh1tu6I32B-15" value="&lt;span style=&quot;font-size: 16px&quot;&gt;&lt;font color=&quot;#c2c22f&quot;&gt;Cookie(혹은 Session Id)&lt;/font&gt;를 반환&lt;/span&gt;" style="text;html=1;align=center;verticalAlign=middle;resizable=0;points=[];autosize=1;strokeColor=none;fillColor=none;fontSize=18;fontStyle=1" parent="1" vertex="1">
          <mxGeometry x="196" y="379" width="250" height="30" as="geometry" />
        </mxCell>
        <mxCell id="Huk9ythuZgXh1tu6I32B-20" value="" style="shape=flexArrow;endArrow=classic;html=1;rounded=0;fontSize=16;fontColor=#000000;" parent="1" edge="1">
          <mxGeometry width="50" height="50" relative="1" as="geometry">
            <mxPoint x="80" y="530" as="sourcePoint" />
            <mxPoint x="540" y="530" as="targetPoint" />
          </mxGeometry>
        </mxCell>
        <mxCell id="Huk9ythuZgXh1tu6I32B-21" value="4" style="ellipse;whiteSpace=wrap;html=1;fontSize=18;fontStyle=1" parent="1" vertex="1">
          <mxGeometry x="100" y="480" width="40" height="40" as="geometry" />
        </mxCell>
        <mxCell id="Huk9ythuZgXh1tu6I32B-22" value="&lt;span style=&quot;font-size: 16px&quot;&gt;&lt;font color=&quot;#c2c22f&quot;&gt;쿠키(혹은 Session Id)&lt;/font&gt;와 함께 인증된 요청을 보냄&lt;/span&gt;" style="text;html=1;align=center;verticalAlign=middle;resizable=0;points=[];autosize=1;strokeColor=none;fillColor=none;fontSize=18;fontStyle=1" parent="1" vertex="1">
          <mxGeometry x="140" y="485" width="370" height="30" as="geometry" />
        </mxCell>
        <mxCell id="Huk9ythuZgXh1tu6I32B-24" value="5" style="ellipse;whiteSpace=wrap;html=1;fontSize=18;fontStyle=1" parent="1" vertex="1">
          <mxGeometry x="479" y="560" width="40" height="40" as="geometry" />
        </mxCell>
        <mxCell id="Huk9ythuZgXh1tu6I32B-25" value="" style="curved=1;endArrow=classic;html=1;rounded=0;fontSize=18;" parent="1" edge="1">
          <mxGeometry width="50" height="50" relative="1" as="geometry">
            <mxPoint x="540" y="530" as="sourcePoint" />
            <mxPoint x="540" y="620" as="targetPoint" />
            <Array as="points">
              <mxPoint x="670" y="570" />
            </Array>
          </mxGeometry>
        </mxCell>
        <mxCell id="Huk9ythuZgXh1tu6I32B-26" value="&lt;span style=&quot;font-size: 16px&quot;&gt;저장된 &lt;font color=&quot;#c2c22f&quot;&gt;세션&lt;/font&gt;과 함께 &lt;font color=&quot;#c2c22f&quot;&gt;Session Id&lt;/font&gt;를 체크&lt;/span&gt;" style="text;html=1;align=center;verticalAlign=middle;resizable=0;points=[];autosize=1;strokeColor=none;fillColor=none;fontSize=18;fontStyle=1" parent="1" vertex="1">
          <mxGeometry x="515" y="566" width="290" height="30" as="geometry" />
        </mxCell>
        <mxCell id="Huk9ythuZgXh1tu6I32B-28" value="" style="shape=flexArrow;endArrow=classic;html=1;rounded=0;fontSize=16;fontColor=#009900;" parent="1" edge="1">
          <mxGeometry width="50" height="50" relative="1" as="geometry">
            <mxPoint x="540" y="620" as="sourcePoint" />
            <mxPoint x="80" y="620" as="targetPoint" />
          </mxGeometry>
        </mxCell>
        <mxCell id="Huk9ythuZgXh1tu6I32B-29" value="6" style="ellipse;whiteSpace=wrap;html=1;fontSize=18;fontStyle=1" parent="1" vertex="1">
          <mxGeometry x="205" y="620" width="40" height="40" as="geometry" />
        </mxCell>
        <mxCell id="Huk9ythuZgXh1tu6I32B-30" value="&lt;span style=&quot;font-size: 16px&quot;&gt;&lt;font color=&quot;#c2c22f&quot;&gt;응답&amp;nbsp;&lt;/font&gt;해준다.&lt;/span&gt;" style="text;html=1;align=center;verticalAlign=middle;resizable=0;points=[];autosize=1;strokeColor=none;fillColor=none;fontSize=18;fontStyle=1" parent="1" vertex="1">
          <mxGeometry x="245" y="625" width="100" height="30" as="geometry" />
        </mxCell>
      </root>
    </mxGraphModel>
  </diagram>
</mxfile>
